<svg xmlns="http://www.w3.org/2000/svg" data-name="Kid avatar" viewBox="0 0 64 64" id="boy"><path fill="#ffcbbe" d="M19 30H16.5A3.5 3.5 0 0 1 13 26.5h0A3.5 3.5 0 0 1 16.5 23H19zM45 30h2.5A3.5 3.5 0 0 0 51 26.5h0A3.5 3.5 0 0 0 47.5 23H45z"></path><path fill="#48a3d2" d="M50,61H14l.43-8.6A12,12,0,0,1,26.415,41h11.17A12,12,0,0,1,49.57,52.4Z"></path><polygon fill="#ffcbbe" points="14 61 21 61 22 52 14.46 52 14 61"></polygon><polygon fill="#ffcbbe" points="49.54 52 42 52 43 61 50 61 49.54 52"></polygon><path fill="#ffcbbe" d="M38,40c0,1.883-1.938,4.856-3.611,7.071a2.994,2.994,0,0,1-4.778,0C27.938,44.856,26,41.883,26,40a6,6,0,0,1,12,0Z"></path><path fill="#ffddce" d="M32,42h0A14,14,0,0,1,18,28V15l6-5H40l6,5V28A14,14,0,0,1,32,42Z"></path><path fill="#3e3d42" d="M48,23H46l-.714-3.569A8,8,0,0,0,37.442,13L26.08,18.917a2,2,0,0,1-2.821-1.141L22,14l-2,3-2,6H16V15A12,12,0,0,1,28,3h8A12,12,0,0,1,48,15Z"></path><path fill="#3e3d42" d="M26 27a1 1 0 0 0 1-1V24a1 1 0 0 0-2 0v2A1 1 0 0 0 26 27zM38 27a1 1 0 0 0 1-1V24a1 1 0 0 0-2 0v2A1 1 0 0 0 38 27zM39 32c0 2.8-3.07 5-7 5s-7-2.2-7-5h2c0 1.63 2.29 3 5 3s5-1.37 5-3z"></path></svg>